<?xml version="1.0" standalone="no"?>
<!DOCTYPE svg PUBLIC "-//W3C//DTD SVG 20010904//EN"
 "http://www.w3.org/TR/2001/REC-SVG-20010904/DTD/svg10.dtd">
<svg version="1.0" xmlns="http://www.w3.org/2000/svg"
 width="512.000000pt" height="512.000000pt" viewBox="0 0 512.000000 512.000000"
 preserveAspectRatio="xMidYMid meet">

<g transform="translate(0.000000,512.000000) scale(0.100000,-0.100000)"
fill="#2c3e50" stroke="none">
<path d="M2430 5114 c-314 -36 -534 -114 -767 -270 -355 -238 -592 -593 -685
-1024 -33 -154 -33 -421 0 -569 101 -452 429 -1198 925 -2106 245 -450 642
-1135 657 -1135 15 0 412 685 657 1135 496 908 824 1654 925 2106 33 148 33
415 0 569 -93 431 -333 790 -687 1026 -198 131 -387 207 -630 250 -80 14 -329
26 -395 18z m375 -389 c513 -107 897 -509 984 -1028 15 -87 15 -297 0 -384
-66 -395 -300 -722 -650 -907 -142 -75 -265 -114 -432 -136 -415 -54 -847 122
-1112 453 -490 611 -310 1506 377 1876 133 73 245 111 403 137 103 17 323 12
430 -11z"/>
<path d="M2100 3590 l0 -750 -90 0 -91 0 3 -102 3 -103 580 0 580 0 3 103 3
102 -91 0 -90 0 0 500 0 500 30 0 30 0 0 -392 c0 -372 1 -395 20 -425 28 -47
73 -67 150 -68 80 0 126 18 148 59 15 28 17 80 20 496 l2 465 -97 98 -96 97
-29 -27 -28 -27 80 -82 80 -82 -2 -453 -3 -454 -57 -3 c-106 -6 -98 -44 -98
448 l0 430 -75 0 -75 0 0 210 0 210 -405 0 -405 0 0 -750z m710 375 l0 -205
-295 0 -295 0 0 205 0 205 295 0 295 0 0 -205z"/>
</g>
</svg>
