<?xml version="1.0" standalone="no"?>
<!DOCTYPE svg PUBLIC "-//W3C//DTD SVG 20010904//EN"
 "http://www.w3.org/TR/2001/REC-SVG-20010904/DTD/svg10.dtd">
<svg version="1.0" xmlns="http://www.w3.org/2000/svg"
 width="720.000000pt" height="720.000000pt" viewBox="0 0 720.000000 720.000000"
 preserveAspectRatio="xMidYMid meet">

<g transform="translate(0.000000,720.000000) scale(0.100000,-0.100000)"
fill="#a0f9e0" stroke="none">
<path d="M770 7193 c-220 -34 -382 -113 -520 -253 -108 -110 -182 -243 -227
-410 -17 -61 -18 -236 -20 -2890 -3 -3082 -6 -2906 52 -3073 74 -215 270 -416
485 -501 36 -14 94 -33 130 -43 61 -17 236 -18 2890 -20 2470 -3 2836 -1 2911
12 356 61 625 313 705 660 18 77 19 190 19 2925 0 2723 -1 2848 -18 2923 -83
352 -346 600 -704 662 -75 13 -446 15 -2882 14 -1538 -1 -2807 -3 -2821 -6z
m3009 -1002 c84 -26 137 -60 199 -125 65 -68 110 -161 120 -247 9 -77 -3
-1613 -13 -1716 l-8 -73 241 0 c137 0 264 -5 294 -11 129 -27 254 -121 316
-237 67 -125 64 -80 61 -1287 -4 -1217 -9 -1124 67 -1200 173 -173 491 -65
511 174 3 43 -22 195 -107 651 -61 327 -122 687 -136 800 -25 203 -25 209 -15
535 6 182 14 450 17 596 l7 267 -99 4 c-147 6 -241 54 -321 162 -75 101 -78
122 -74 514 l3 343 -119 125 c-149 159 -222 242 -236 273 -11 22 -7 28 45 75
31 28 73 61 94 73 l39 21 397 -391 c418 -414 458 -460 500 -586 23 -66 23 -70
28 -971 7 -984 5 -964 70 -1310 46 -248 200 -1131 206 -1181 14 -118 -41 -245
-156 -359 -239 -238 -598 -255 -834 -39 -70 64 -116 129 -149 211 l-22 53 -5
1130 c-5 1086 -6 1131 -24 1168 -11 22 -37 51 -59 65 l-40 27 -234 3 -233 3
-2 -1398 -3 -1398 -245 3 c-583 6 -1610 22 -1787 28 l-193 6 0 2412 c0 2638
-3 2477 58 2590 56 103 180 199 290 225 20 5 364 9 764 10 685 1 730 0 787
-18z"/>
<path d="M2283 5865 c-65 -28 -63 -12 -63 -662 0 -565 1 -589 20 -620 12 -21
32 -36 57 -43 27 -8 243 -10 720 -8 l683 3 32 33 33 32 0 605 0 605 -33 32
-32 33 -693 2 c-574 2 -697 0 -724 -12z"/>
<path d="M5080 4826 c0 -153 1 -165 23 -196 29 -43 59 -65 132 -95 l60 -24 3
151 c3 167 -10 238 -50 275 -20 18 -123 53 -157 53 -8 0 -11 -51 -11 -164z"/>
</g>
</svg>
